<?xml version="1.0" encoding="utf-8"?>
<!-- Generator: Adobe Illustrator 23.0.4, SVG Export Plug-In . SVG Version: 6.00 Build 0)  -->
<svg version="1.1" id="Layer_1" xmlns="http://www.w3.org/2000/svg" xmlns:xlink="http://www.w3.org/1999/xlink" x="0px" y="0px"
	 viewBox="0 0 216 216" style="enable-background:new 0 0 216 216;" xml:space="preserve">
<style type="text/css">
	.st0{fill:#FFFFFF;}
	.st1{fill:#424242;}
	.st2{fill:#8ED3CF;}
	.st3{fill:#FBE182;}
	.st4{fill:#EA7988;}
	.st5{fill:#BCDAF3;}
	.st6{opacity:0.15;fill:#010101;enable-background:new    ;}
</style>
<g>
	<g>
		<path class="st0" d="M59.2,196.9h97.1c5.5,0,10-4.5,10-10v-26.6c0-2.6-1.1-5.2-2.9-7.1l-47.8-47.8c-3.9-3.9-10.2-3.9-14.1,0
			l-48.8,48.8c-1.8,1.8-2.9,4.3-2.9,6.8l-0.5,25.7C49.1,192.3,53.6,196.9,59.2,196.9z"/>
	</g>
	<g>
		<g>
			
				<rect x="64" y="50.2" transform="matrix(0.7071 -0.7071 0.7071 0.7071 -34.9175 103.8835)" class="st0" width="87.8" height="87.8"/>
		</g>
		<g>
			<g>
				<g>
					<path class="st1" d="M72.3,89.4c-1.6,0-2.9,0.4-3.6,1.3c-0.8,0.9-1.2,2.1-1.2,3.4s0.4,2.4,1.2,3.3s2.1,1.3,3.6,1.3
						c1.6,0,2.9-0.4,3.6-1.3s1.2-2,1.2-3.3s-0.4-2.5-1.2-3.4S73.9,89.4,72.3,89.4L72.3,89.4z"/>
				</g>
				<g>
					<path class="st1" d="M108,89.4c-1.6,0-2.9,0.4-3.6,1.3c-0.8,0.9-1.2,2.1-1.2,3.4s0.4,2.4,1.2,3.3s2.1,1.3,3.6,1.3
						c1.6,0,2.9-0.4,3.6-1.3c0.8-0.9,1.2-2,1.2-3.3s-0.4-2.5-1.2-3.4C110.9,89.9,109.6,89.4,108,89.4L108,89.4z"/>
				</g>
				<g>
					<path class="st1" d="M143.9,89.4c-1.6,0-2.9,0.4-3.6,1.3c-0.8,0.9-1.2,2.1-1.2,3.4s0.4,2.4,1.2,3.3s2.1,1.3,3.6,1.3
						c1.6,0,2.9-0.4,3.6-1.3c0.8-0.9,1.2-2,1.2-3.3s-0.4-2.5-1.2-3.4C146.6,89.9,145.5,89.4,143.9,89.4L143.9,89.4z"/>
				</g>
			</g>
			<path class="st1" d="M143.7,127.4c-0.1-0.1-0.1-0.1-0.2-0.2l33.1-33.1L143.5,61c0.1,0,0.1-0.1,0.2-0.1l25.7-25.7
				c1.8-1.8,1.8-4.5,0-6.3c-1.8-1.8-4.5-1.8-6.3,0l-25.7,25.7c-0.1,0.1-0.1,0.1-0.1,0.2l-29.3-29.3L78.6,54.7c0,0-0.1-0.1-0.1-0.1
				L52.8,28.9c-1.8-1.8-4.5-1.8-6.3,0c-1.8,1.8-1.8,4.5,0,6.3l25.7,25.7c0.1,0.1,0.1,0.1,0.2,0.1L39.3,94.1l33.1,33.1
				c-0.1,0.1-0.1,0.1-0.2,0.2l-25.7,25.7c-1.8,1.8-1.8,4.5,0,6.3c1.8,1.8,4.5,1.8,6.3,0l25.7-25.7c0.1-0.1,0.1-0.1,0.2-0.2
				l29.3,29.3l29.3-29.3c0.1,0.1,0.1,0.1,0.2,0.2l25.7,25.7c1.8,1.8,4.5,1.8,6.3,0c1.8-1.8,1.8-4.5,0-6.3L143.7,127.4z M53.8,94.1
				L107.9,40L162,94.1l-54.1,54.1L53.8,94.1z"/>
			<path class="st2" d="M62.5,32c0,7.1-5.7,12.9-12.9,12.9S36.8,39.1,36.8,32s5.8-12.9,12.9-12.9S62.5,24.8,62.5,32z"/>
			<path class="st3" d="M179.2,32c0,7.1-5.7,12.9-12.9,12.9c-7.1,0-12.9-5.7-12.9-12.9s5.8-12.9,12.9-12.9
				C173.4,19.1,179.2,24.8,179.2,32z"/>
			<path class="st4" d="M62.5,156.2c0,7.1-5.7,12.9-12.9,12.9s-12.9-5.7-12.9-12.9c0-7.1,5.7-12.9,12.9-12.9S62.5,149.1,62.5,156.2z
				"/>
			<path class="st5" d="M179.2,156.2c0,7.1-5.7,12.9-12.9,12.9c-7.1,0-12.9-5.7-12.9-12.9c0-7.1,5.7-12.9,12.9-12.9
				C173.4,143.3,179.2,149.1,179.2,156.2z"/>
		</g>
		<g>
			<path class="st0" d="M166.4,19.1c7.1,0,12.9,5.7,12.9,12.9c0,7.1-5.7,12.9-12.9,12.9c-1.9,0-3.8-0.4-5.4-1.2l-17.2,17.2
				c-0.1,0.1-0.1,0.1-0.2,0.1l33.1,33.1l-33.1,33.1c0.1,0.1,0.1,0.1,0.2,0.2l17.1,17.1c1.7-0.8,3.5-1.2,5.5-1.2
				c7.2,0,12.9,5.8,12.9,12.9c0,7.1-5.7,12.9-12.9,12.9c-7.1,0-12.9-5.7-12.9-12.9c0-1.9,0.4-3.7,1.2-5.4l-17.1-17.2
				c-0.1-0.1-0.1-0.1-0.2-0.2L108,162.7l-29.3-29.3c-0.1,0.1-0.1,0.1-0.2,0.2l-17.2,17.2c0.7,1.6,1.2,3.4,1.2,5.4
				c0,7.1-5.7,12.9-12.9,12.9c-0.2,0-0.3,0-0.5,0c-6.5-0.2-11.8-5.4-12.3-11.8c-0.6-7.6,5.4-14,12.9-14c1.9,0,3.8,0.4,5.4,1.2
				l17.1-17.1c0.1-0.1,0.1-0.1,0.2-0.2L39.4,94.1L72.4,61c-0.1,0-0.1-0.1-0.2-0.1L55.1,43.7c-1.6,0.8-3.5,1.2-5.4,1.2
				c-7.2,0-12.8-5.8-12.8-12.9s5.8-12.9,12.9-12.9S62.6,24.8,62.6,32c0,1.9-0.4,3.8-1.2,5.4l17.2,17.2c0,0,0.1,0.1,0.1,0.1L108,25.4
				l29.3,29.3c0-0.1,0.1-0.1,0.1-0.2l17.2-17.2c-0.8-1.6-1.2-3.5-1.2-5.4C153.5,24.8,159.3,19.1,166.4,19.1 M166.4,10.8
				c-11.7,0-21.3,9.5-21.3,21.2c0,1,0.1,2,0.2,2.9l-8,8l-23.4-23.4l-5.9-5.9l-5.9,5.9L78.7,43l-8-8c0.1-1,0.2-2,0.2-3
				c0-11.7-9.5-21.2-21.2-21.2c-11.7,0-21.2,9.5-21.2,21.2c0,11.7,9.5,21.2,21.2,21.2c1,0,2-0.1,3-0.2l8,8L33.5,88.2l-5.9,5.9
				l5.9,5.9l27.2,27.2l-8,8c-1-0.1-2-0.2-3-0.2c-5.9,0-11.6,2.5-15.6,6.8c-4,4.3-6,10.2-5.6,16.1c0.9,10.7,9.6,19.1,20.3,19.5
				c0.3,0,0.5,0,0.8,0c11.7,0,21.2-9.5,21.2-21.2c0-1-0.1-1.9-0.2-2.9l8-8l23.4,23.4l5.9,5.9l5.9-5.9l23.4-23.4l8,8
				c-0.1,1-0.2,1.9-0.2,2.9c0,11.7,9.5,21.2,21.2,21.2c11.7,0,21.2-9.5,21.2-21.2s-9.5-21.2-21.2-21.2c-1,0-2,0.1-3,0.2l-8-8
				l27.2-27.2l5.9-5.9l-5.9-5.9L155.4,61l8-8c1,0.1,2,0.2,3,0.2c11.7,0,21.2-9.5,21.2-21.2C187.6,20.3,178.1,10.8,166.4,10.8
				L166.4,10.8z"/>
		</g>
		<path class="st6" d="M55.7,38.8c-7.1,0-12.9-5.7-12.9-12.9c0-2.1,0.5-3.9,1.2-5.6c-4.4,2.1-7.3,6.5-7.3,11.6
			c0,7.1,5.7,12.9,12.9,12.9c5.1,0,9.5-3,11.6-7.3C59.6,38.4,57.8,38.8,55.7,38.8z"/>
		<path class="st6" d="M172.3,38.8c-7.1,0-12.9-5.7-12.9-12.9c0-2.1,0.5-3.9,1.2-5.6c-4.4,2.1-7.3,6.5-7.3,11.6
			c0,7.1,5.7,12.9,12.9,12.9c5.1,0,9.5-3,11.6-7.3C176.2,38.4,174.4,38.8,172.3,38.8z"/>
		<path class="st6" d="M172.3,163c-7.1,0-12.9-5.7-12.9-12.9c0-2.1,0.5-3.9,1.2-5.6c-4.4,2.1-7.3,6.5-7.3,11.6
			c0,7.1,5.7,12.9,12.9,12.9c5.1,0,9.5-3,11.6-7.3C176.2,162.6,174.4,163,172.3,163z"/>
		<path class="st6" d="M55.7,163c-7.1,0-12.9-5.7-12.9-12.9c0-2.1,0.5-3.9,1.2-5.6c-4.4,2.1-7.3,6.5-7.3,11.6
			c0,7.1,5.7,12.9,12.9,12.9c5.1,0,9.5-3,11.6-7.3C59.6,162.6,57.8,163,55.7,163z"/>
	</g>
	<g>
		<path class="st1" d="M66.2,182.1c0,0.6-0.1,1.2-0.3,1.6c-0.2,0.5-0.4,0.9-0.7,1.3c-0.3,0.4-0.7,0.6-1.1,0.8
			c-0.4,0.2-0.9,0.3-1.4,0.3c-0.5,0-1-0.1-1.4-0.3c-0.4-0.2-0.8-0.5-1.1-0.8c-0.3-0.4-0.5-0.8-0.7-1.3c-0.2-0.5-0.3-1-0.3-1.6
			c0-0.6,0.1-1.2,0.3-1.7c0.2-0.5,0.4-0.9,0.7-1.3c0.3-0.3,0.7-0.6,1.1-0.8c0.4-0.2,0.9-0.3,1.4-0.3c0.5,0,1,0.1,1.4,0.3
			c0.4,0.2,0.8,0.5,1.1,0.8c0.3,0.3,0.5,0.8,0.7,1.3C66.2,181,66.2,181.5,66.2,182.1z M64.8,182.1c0-0.9-0.2-1.6-0.6-2.1
			s-0.9-0.8-1.5-0.8c-0.6,0-1.1,0.3-1.5,0.8c-0.4,0.5-0.6,1.2-0.6,2.1c0,0.9,0.2,1.5,0.6,2c0.4,0.5,0.9,0.8,1.5,0.8
			c0.6,0,1.1-0.3,1.5-0.8C64.7,183.7,64.8,183,64.8,182.1z"/>
		<path class="st1" d="M74.5,182.2c0,0.6-0.1,1.1-0.2,1.6c-0.1,0.5-0.4,0.9-0.6,1.3c-0.3,0.4-0.6,0.6-1,0.8
			c-0.4,0.2-0.9,0.3-1.4,0.3c-0.4,0-0.8,0-1.1-0.1c-0.3-0.1-0.5-0.2-0.7-0.3v3h-1.4v-10.2c0.3-0.1,0.7-0.2,1.1-0.3
			c0.5-0.1,1-0.1,1.6-0.1c0.6,0,1.1,0.1,1.5,0.3c0.5,0.2,0.8,0.5,1.2,0.8c0.3,0.3,0.6,0.8,0.7,1.3C74.4,181,74.5,181.5,74.5,182.2z
			 M73.1,182.2c0-0.9-0.2-1.6-0.6-2.1s-1-0.7-1.6-0.7c-0.4,0-0.7,0-0.9,0c-0.2,0-0.4,0.1-0.5,0.1v4.8c0.2,0.1,0.4,0.3,0.7,0.4
			c0.3,0.1,0.6,0.2,0.9,0.2c0.4,0,0.7-0.1,0.9-0.2c0.3-0.1,0.5-0.3,0.6-0.6c0.2-0.2,0.3-0.5,0.4-0.9S73.1,182.6,73.1,182.2z"/>
		<path class="st1" d="M79.5,178.1c1,0,1.8,0.3,2.4,1c0.6,0.6,0.8,1.6,0.8,2.9v0.5h-5.5c0.1,0.8,0.3,1.4,0.8,1.8
			c0.5,0.4,1.1,0.6,2,0.6c0.5,0,0.9,0,1.2-0.1c0.3-0.1,0.6-0.2,0.8-0.2l0.2,1.2c-0.2,0.1-0.5,0.2-0.9,0.3c-0.4,0.1-0.9,0.1-1.5,0.1
			c-0.7,0-1.2-0.1-1.7-0.3c-0.5-0.2-0.9-0.5-1.2-0.8c-0.3-0.4-0.6-0.8-0.7-1.3c-0.2-0.5-0.2-1-0.2-1.6c0-0.7,0.1-1.3,0.3-1.8
			c0.2-0.5,0.5-0.9,0.8-1.3c0.3-0.3,0.7-0.6,1.2-0.7C78.6,178.2,79,178.1,79.5,178.1z M81.3,181.4c0-0.7-0.2-1.2-0.5-1.5
			c-0.3-0.4-0.8-0.6-1.4-0.6c-0.3,0-0.6,0.1-0.9,0.2c-0.3,0.1-0.5,0.3-0.7,0.5c-0.2,0.2-0.3,0.4-0.4,0.7c-0.1,0.3-0.2,0.5-0.2,0.8
			H81.3z"/>
		<path class="st1" d="M84.6,178.5c0.5-0.1,1-0.2,1.5-0.3c0.5-0.1,1-0.1,1.4-0.1c1,0,1.8,0.3,2.3,0.8c0.5,0.5,0.8,1.4,0.8,2.5v4.5
			h-1.4v-4.3c0-0.5,0-0.9-0.1-1.2c-0.1-0.3-0.2-0.5-0.4-0.7c-0.2-0.2-0.4-0.3-0.6-0.4c-0.2-0.1-0.5-0.1-0.7-0.1c-0.2,0-0.5,0-0.7,0
			c-0.2,0-0.5,0.1-0.7,0.1v6.5h-1.4V178.5z"/>
		<path class="st1" d="M94,181.1h3.6v1.3H94V181.1z"/>
		<path class="st1" d="M101.8,186v-7.3c1.1-0.4,2.3-0.6,3.4-0.6c0.4,0,0.7,0,1,0c0.3,0,0.7,0.1,1.1,0.2l-0.2,1.2
			c-0.4-0.1-0.7-0.2-0.9-0.2c-0.3,0-0.6,0-0.9,0c-0.7,0-1.4,0.1-2.1,0.3v6.4H101.8z"/>
		<path class="st1" d="M115.9,182.2c0,0.6-0.1,1.1-0.2,1.6c-0.1,0.5-0.4,0.9-0.6,1.3c-0.3,0.4-0.6,0.6-1,0.8
			c-0.4,0.2-0.9,0.3-1.4,0.3c-0.4,0-0.8,0-1.1-0.1c-0.3-0.1-0.5-0.2-0.7-0.3v3h-1.4v-10.2c0.3-0.1,0.7-0.2,1.1-0.3
			c0.5-0.1,1-0.1,1.6-0.1c0.6,0,1.1,0.1,1.5,0.3c0.5,0.2,0.8,0.5,1.2,0.8c0.3,0.3,0.6,0.8,0.7,1.3
			C115.8,181,115.9,181.5,115.9,182.2z M114.5,182.2c0-0.9-0.2-1.6-0.6-2.1s-1-0.7-1.6-0.7c-0.4,0-0.7,0-0.9,0
			c-0.2,0-0.4,0.1-0.5,0.1v4.8c0.2,0.1,0.4,0.3,0.7,0.4c0.3,0.1,0.6,0.2,0.9,0.2c0.4,0,0.7-0.1,0.9-0.2c0.3-0.1,0.5-0.3,0.6-0.6
			c0.2-0.2,0.3-0.5,0.4-0.9S114.5,182.6,114.5,182.2z"/>
		<path class="st1" d="M117.3,182.2c0-0.7,0.1-1.3,0.3-1.8c0.2-0.5,0.5-0.9,0.9-1.3c0.4-0.3,0.8-0.6,1.3-0.7s1.1-0.2,1.6-0.2
			c0.4,0,0.7,0,1.1,0.1c0.4,0,0.8,0.1,1.2,0.3l-0.3,1.2c-0.4-0.1-0.7-0.2-1-0.3c-0.3,0-0.6-0.1-0.9-0.1c-0.4,0-0.8,0.1-1.1,0.2
			c-0.4,0.1-0.7,0.3-0.9,0.5c-0.3,0.2-0.5,0.5-0.6,0.9c-0.2,0.4-0.2,0.8-0.2,1.3c0,0.5,0.1,0.9,0.2,1.2c0.1,0.3,0.3,0.6,0.6,0.9
			c0.3,0.2,0.6,0.4,0.9,0.5c0.4,0.1,0.8,0.2,1.2,0.2c0.4,0,0.7,0,1-0.1c0.3,0,0.7-0.1,1.1-0.3l0.2,1.1c-0.4,0.1-0.8,0.2-1.2,0.3
			c-0.4,0.1-0.8,0.1-1.3,0.1c-0.6,0-1.2-0.1-1.7-0.3c-0.5-0.2-1-0.4-1.3-0.8c-0.4-0.3-0.7-0.7-0.9-1.2
			C117.4,183.4,117.3,182.8,117.3,182.2z"/>
		<path class="st1" d="M130.2,184.9c0,0.3-0.1,0.6-0.3,0.9c-0.2,0.3-0.5,0.4-0.9,0.4c-0.4,0-0.7-0.1-0.9-0.4
			c-0.2-0.3-0.3-0.5-0.3-0.9c0-0.3,0.1-0.6,0.3-0.9c0.2-0.3,0.5-0.4,0.9-0.4c0.4,0,0.7,0.1,0.9,0.4
			C130,184.3,130.2,184.6,130.2,184.9z"/>
		<path class="st1" d="M140.7,182.1c0,0.6-0.1,1.2-0.3,1.6c-0.2,0.5-0.4,0.9-0.7,1.3c-0.3,0.4-0.7,0.6-1.1,0.8
			c-0.4,0.2-0.9,0.3-1.4,0.3c-0.5,0-1-0.1-1.4-0.3c-0.4-0.2-0.8-0.5-1.1-0.8c-0.3-0.4-0.5-0.8-0.7-1.3c-0.2-0.5-0.3-1-0.3-1.6
			c0-0.6,0.1-1.2,0.3-1.7c0.2-0.5,0.4-0.9,0.7-1.3c0.3-0.3,0.7-0.6,1.1-0.8c0.4-0.2,0.9-0.3,1.4-0.3c0.5,0,1,0.1,1.4,0.3
			c0.4,0.2,0.8,0.5,1.1,0.8c0.3,0.3,0.5,0.8,0.7,1.3C140.6,181,140.7,181.5,140.7,182.1z M139.3,182.1c0-0.9-0.2-1.6-0.6-2.1
			s-0.9-0.8-1.5-0.8c-0.6,0-1.1,0.3-1.5,0.8c-0.4,0.5-0.6,1.2-0.6,2.1c0,0.9,0.2,1.5,0.6,2c0.4,0.5,0.9,0.8,1.5,0.8
			c0.6,0,1.1-0.3,1.5-0.8C139.1,183.7,139.3,183,139.3,182.1z"/>
		<path class="st1" d="M143.1,186v-7.3c1.1-0.4,2.3-0.6,3.4-0.6c0.4,0,0.7,0,1,0c0.3,0,0.7,0.1,1.1,0.2l-0.2,1.2
			c-0.4-0.1-0.7-0.2-0.9-0.2c-0.3,0-0.6,0-0.9,0c-0.7,0-1.4,0.1-2.1,0.3v6.4H143.1z"/>
		<path class="st1" d="M155.3,185.3c-0.2,0.1-0.4,0.2-0.7,0.3c-0.3,0.1-0.7,0.1-1.1,0.1c-0.5,0-0.9-0.1-1.3-0.2
			c-0.4-0.1-0.7-0.4-1-0.7c-0.3-0.3-0.5-0.7-0.7-1.2c-0.2-0.5-0.3-1-0.3-1.7c0-0.6,0.1-1.1,0.2-1.5c0.2-0.5,0.4-0.9,0.7-1.2
			c0.3-0.3,0.7-0.6,1.1-0.8c0.4-0.2,0.9-0.3,1.5-0.3c0.7,0,1.2,0,1.7,0.1c0.5,0.1,0.9,0.2,1.2,0.3v6.8c0,1.2-0.3,2.1-0.9,2.6
			c-0.6,0.5-1.5,0.8-2.7,0.8c-0.5,0-0.9,0-1.3-0.1c-0.4-0.1-0.8-0.2-1.1-0.3l0.2-1.2c0.3,0.1,0.6,0.2,1,0.3c0.4,0.1,0.8,0.1,1.2,0.1
			c0.8,0,1.4-0.2,1.7-0.5c0.3-0.3,0.5-0.8,0.5-1.6V185.3z M155.3,179.5c-0.1,0-0.3-0.1-0.5-0.1c-0.2,0-0.5-0.1-0.9-0.1
			c-0.7,0-1.2,0.2-1.6,0.7c-0.4,0.5-0.6,1.1-0.6,1.9c0,0.4,0.1,0.8,0.2,1.1c0.1,0.3,0.2,0.6,0.4,0.8c0.2,0.2,0.4,0.4,0.6,0.4
			c0.2,0.1,0.5,0.1,0.7,0.1c0.3,0,0.7,0,1-0.1c0.3-0.1,0.5-0.2,0.7-0.3V179.5z"/>
	</g>
</g>
</svg>
