<?xml version="1.0" encoding="utf-8"?>
<!-- Generator: Adobe Illustrator 23.0.1, SVG Export Plug-In . SVG Version: 6.00 Build 0)  -->
<svg version="1.1" xmlns="http://www.w3.org/2000/svg" xmlns:xlink="http://www.w3.org/1999/xlink" x="0px" y="0px"
	 viewBox="0 0 500 500" style="enable-background:new 0 0 500 500;" xml:space="preserve">
<style type="text/css">
	.st0{fill:#10321B;}
	.st1{fill:#0E8943;}
	.st2{fill:#79C383;}
</style>
<g id="background">
</g>
<g id="symbol">
	<g>
		<path class="st0" d="M251.6,371.8c48.3,0,96.5,0,144.8,0c1.8,0,3.9-0.4,5.5,0.1c2.3,0.8,4.3,2.4,6.5,3.6c-1.8,1.7-3.5,3.6-5.5,5.2
			c-0.9,0.7-2.3,0.9-3.4,1.3c-116.3,39.1-232.7,78.1-349.1,117.1c-2.9,1-6.3,0.6-9.5,0.9c0.4-3.4,0-7.1,1.3-10.1
			c16.4-36.7,33.2-73.3,49.6-110c2.8-6.3,6.4-8.4,13.3-8.3C153.9,371.9,202.8,371.8,251.6,371.8z"/>
		<path class="st1" d="M428,339.7c-3.4-4.6-6-7.5-7.9-10.7C358,220.7,295.9,112.4,233.9,4.1c-0.3-0.5,1.1-2,2.3-4.1
			c2.9,2.2,5.6,4,8,6.1c73.5,64.8,146.9,129.6,220.4,194.3c4.3,3.8,5.6,7.2,3.8,12.7c-12.2,39.2-24.2,78.5-36.3,117.8
			C431.4,333.3,430,335.6,428,339.7z"/>
		<path class="st2" d="M227,40.9c-2.2,5.3-3.4,9-5.3,12.2c-62,108.4-124.1,216.7-186.3,324.9c-0.3,0.5-2.2,0.1-4.7,0
			c0.4-3.6,0.6-6.8,1.2-9.9C50.8,272,69.6,175.9,88.3,79.7c1.1-5.6,3.4-8.4,9-9.7c40-9.3,80-18.8,120-28.2
			C219.7,41.3,222.4,41.3,227,40.9z"/>
	</g>
</g>
</svg>
