<?xml version="1.0" encoding="utf-8"?>
<!-- Generator: Adobe Illustrator 23.0.2, SVG Export Plug-In . SVG Version: 6.00 Build 0)  -->
<svg version="1.1" id="Layer_1" xmlns="http://www.w3.org/2000/svg" xmlns:xlink="http://www.w3.org/1999/xlink" x="0px" y="0px"
	 viewBox="0 0 512 512" style="enable-background:new 0 0 512 512;" xml:space="preserve">
<style type="text/css">
	.st0{fill:#495058;}
	.st1{fill:#89DBD4;}
	.st2{opacity:0.15;enable-background:new    ;}
	.st3{fill:#FCE182;}
	.st4{opacity:0.2;enable-background:new    ;}
	.st5{fill:#EA7988;}
	.st6{fill:#B9DCFD;}
</style>
<g>
	<g>
		<path class="st0" d="M183.1,132.7c-2.6,0-5.2-1-7.2-3L118.2,72c-4-4-4-10.1,0-14.1s10.1-4,14.1,0l57.7,57.7c4,4,4,10.1,0,14.1
			C188,131.7,185.7,132.7,183.1,132.7z"/>
		<path class="st0" d="M329.1,132.7c2.6,0,5.2-1,7.2-3L394,72c4-4,4-10.1,0-14.1s-10.1-4-14.1,0l-57.7,57.7c-4,4-4,10.1,0,14.1
			C324.2,131.7,326.5,132.7,329.1,132.7z"/>
		<path class="st0" d="M183.1,275.8c-2.6,0-5.2,1-7.2,3l-57.7,57.7c-4,4-4,10.1,0,14.1s10.1,4,14.1,0l57.7-57.7c4-4,4-10.1,0-14.1
			C188,276.8,185.7,275.8,183.1,275.8z"/>
		<path class="st0" d="M329.1,275.8c2.6,0,5.2,1,7.2,3l57.7,57.7c4,4,4,10.1,0,14.1s-10.1,4-14.1,0l-57.7-57.7c-4-4-4-10.1,0-14.1
			C324.2,276.8,326.5,275.8,329.1,275.8z"/>
	</g>
	<path class="st1" d="M154.2,64.9c0,15.9-12.9,28.9-28.9,28.9s-28.8-13-28.8-28.9S109.4,36,125.4,36S154.2,48.9,154.2,64.9z"/>
	<path class="st2" d="M138.7,80.2c-15.9,0-28.9-12.9-28.9-28.9c0-4.6,1-8.8,2.8-12.5c-9.8,4.6-16.3,14.5-16.3,26.1
		c0,15.9,12.9,28.9,28.9,28.9c11.5,0,21.3-6.8,26.1-16.3C147.4,79.2,143.3,80.2,138.7,80.2z"/>
	<path class="st3" d="M415.9,64.9c0,15.9-12.9,28.9-28.9,28.9c-15.9,0-28.9-12.9-28.9-28.9S371.1,36,387,36
		C403,36,415.9,48.9,415.9,64.9z"/>
	<path class="st4" d="M400.6,80.2c-15.9,0-28.9-12.9-28.9-28.9c0-4.6,1-8.8,2.8-12.5c-9.8,4.6-16.3,14.5-16.3,26.1
		c0,15.9,12.9,28.9,28.9,28.9c11.5,0,21.3-6.8,26.1-16.3C409.1,79.2,405,80.2,400.6,80.2z"/>
	<path class="st5" d="M154.2,343.5c0,15.9-12.9,28.9-28.9,28.9s-28.9-12.9-28.9-28.9c0-15.9,12.9-28.9,28.9-28.9
		S154.2,327.5,154.2,343.5z"/>
	<path class="st2" d="M138.7,358.8c-15.9,0-28.9-12.9-28.9-28.9c0-4.6,1-8.8,2.8-12.5c-9.8,4.6-16.3,14.5-16.3,26.1
		c0,15.9,12.9,28.9,28.9,28.9c11.5,0,21.3-6.8,26.1-16.3C147.4,357.8,143.3,358.8,138.7,358.8z"/>
	<path class="st6" d="M415.9,343.5c0,15.9-12.9,28.9-28.9,28.9c-15.9,0-28.9-12.9-28.9-28.9c0-15.9,12.9-28.9,28.9-28.9
		S415.9,327.5,415.9,343.5z"/>
	<path class="st2" d="M400.6,358.8c-15.9,0-28.9-12.9-28.9-28.9c0-4.6,1-8.8,2.8-12.5c-9.8,4.6-16.3,14.5-16.3,26.1
		c0,15.9,12.9,28.9,28.9,28.9c11.5,0,21.3-6.8,26.1-16.3C409.1,357.8,405,358.8,400.6,358.8z"/>
	<g>
		<g>
			<path class="st0" d="M176.1,193.8c-3.6,0-6.4,1-8.2,3s-2.8,4.6-2.8,7.6s1,5.4,2.8,7.4s4.6,3,8.2,3c3.6,0,6.4-1,8.2-3
				s2.8-4.4,2.8-7.4s-1-5.6-2.8-7.6S179.7,193.8,176.1,193.8L176.1,193.8z"/>
		</g>
		<g>
			<path class="st0" d="M256.3,193.8c-3.6,0-6.4,1-8.2,3s-2.8,4.6-2.8,7.6s1,5.4,2.8,7.4s4.6,3,8.2,3c3.6,0,6.4-1,8.2-3
				c1.8-2,2.8-4.4,2.8-7.4s-1-5.6-2.8-7.6S259.9,193.8,256.3,193.8L256.3,193.8z"/>
		</g>
		<g>
			<path class="st0" d="M336.7,193.8c-3.6,0-6.4,1-8.2,3c-1.8,2-2.8,4.6-2.8,7.6s1,5.4,2.8,7.4s4.6,3,8.2,3s6.4-1,8.2-3
				s2.8-4.4,2.8-7.4s-1-5.6-2.8-7.6C342.9,194.8,340.3,193.8,336.7,193.8L336.7,193.8z"/>
		</g>
	</g>
</g>
<g>
	<g>
		<path class="st0" d="M55.9,417.3c-3.8,0-7.4,1-10.3,2.8c-3,2-5.4,4.6-7,8.4c-1.6,3.6-2.4,7.8-2.4,12.5v3.6c0,4.6,0.8,8.8,2.6,12.1
			c1.6,3.6,4,6.2,7,8.2s6.4,2.8,10.1,2.8c4,0,7.4-1,10.3-2.8c3-1.8,5.2-4.6,6.8-8.2c1.6-3.6,2.4-7.8,2.4-12.5V441
			c0-4.8-0.8-9-2.4-12.5c-1.6-3.6-4-6.4-7-8.2C63.1,418.4,59.9,417.3,55.9,417.3L55.9,417.3z M55.9,462c-4.2,0-7.4-1.6-9.8-4.8
			c-2.4-3.2-3.6-7.6-3.6-13.3v-3.6c0-5.6,1.2-9.8,3.6-12.9s5.6-4.6,9.6-4.6c4.2,0,7.4,1.6,9.8,4.6c2.4,3.2,3.6,7.6,3.6,13.3v3.6
			c0,5.6-1.2,10-3.6,13.1C63.5,460.4,60.1,462,55.9,462L55.9,462z"/>
	</g>
	<g>
		<path class="st0" d="M120.6,417.8h-18.1v49h6.4v-19.1h11.5c5.6,0,9.8-1.2,12.7-3.8s4.4-6.2,4.4-10.9c0-4.6-1.6-8.2-4.6-10.9
			C130.1,419.2,126,417.8,120.6,417.8L120.6,417.8z M108.8,442.3V423h11.9c3.2,0,5.8,1,7.6,2.8c1.8,1.8,2.8,4.2,2.8,7
			c0,3-1,5.4-2.8,7s-4.6,2.4-8,2.4h-11.5V442.3z"/>
	</g>
	<g>
		<polygon class="st0" points="193.8,417.8 163,417.8 163,466.8 194.2,466.8 194.2,461.4 169.5,461.4 169.5,444.1 190.6,444.1 
			190.6,438.9 169.5,438.9 169.5,423 193.8,423 		"/>
	</g>
	<g>
		<polygon class="st0" points="256.9,417.8 250.5,417.8 250.5,455.7 225.9,417.8 219.3,417.8 219.3,466.8 225.9,466.8 225.9,429 
			250.5,466.8 256.9,466.8 		"/>
	</g>
	<g>
		<path class="st0" d="M335.9,417.8h-16.1v49h6.6v-19.7h11.5l10.5,19.7h7v-0.4l-11.5-20.7c3-1.2,5.2-2.8,7-5c1.6-2.2,2.4-5,2.4-8
			c0-4.8-1.4-8.4-4.4-10.9C345.7,419,341.5,417.8,335.9,417.8L335.9,417.8z M326.3,441.7v-18.5h10c3.4,0,6,0.8,7.8,2.4s2.8,4,2.8,7
			c0,2.8-1,5-2.8,6.6c-2,1.6-4.4,2.6-7.6,2.6h-10.2V441.7z"/>
	</g>
	<g>
		<path class="st0" d="M397.4,417.8h-18.1v49h6.4v-19.1h11.5c5.6,0,9.8-1.2,12.7-3.8s4.4-6.2,4.4-10.9c0-4.6-1.6-8.2-4.6-10.9
			C406.9,419.2,402.8,417.8,397.4,417.8L397.4,417.8z M385.9,442.3V423h11.9c3.2,0,5.8,1,7.6,2.8c1.8,1.8,2.8,4.2,2.8,7
			c0,3-1,5.4-2.8,7s-4.6,2.4-8,2.4h-11.5V442.3z"/>
	</g>
	<g>
		<path class="st0" d="M457.9,417.3c-4,0-7.4,1-10.3,2.8c-3,1.8-5.4,4.6-7,8s-2.4,7.4-2.4,11.9v4.8c0,7,1.8,12.5,5.2,16.7
			c3.4,4.2,8.2,6.2,13.9,6.2c5.4,0,9.6-1.4,12.7-4.2c3.2-2.8,5.2-6.8,5.8-11.9h-6.6c-0.6,4-2,6.8-3.8,8.6c-2,1.6-4.6,2.4-8.2,2.4
			c-4,0-7.2-1.6-9.4-4.8c-2.2-3.2-3.4-7.4-3.4-12.7v-4.8c0-5.6,1.2-10,3.6-12.9c2.4-3,5.6-4.6,9.8-4.6c3.4,0,6,0.8,7.8,2.6
			c1.8,1.8,3,4.6,3.6,8.6h6.6c-0.6-5.2-2.4-9.2-5.6-12.1C467.2,418.6,463.1,417.3,457.9,417.3L457.9,417.3z"/>
	</g>
</g>
<g>
	<path class="st0" d="M256.1,50.1l-154,154l154,154l154-154L256.1,50.1z M134.7,204.2L256.1,82.8l121.4,121.4L256.1,325.6
		L134.7,204.2z"/>
</g>
<rect x="271.2" y="440" class="st0" width="31.2" height="5"/>
</svg>
