<?xml version="1.0" encoding="utf-8"?>
<!-- Generator: Adobe Illustrator 23.0.2, SVG Export Plug-In . SVG Version: 6.00 Build 0)  -->
<svg version="1.1" id="Layer_1" xmlns="http://www.w3.org/2000/svg" xmlns:xlink="http://www.w3.org/1999/xlink" x="0px" y="0px"
	 viewBox="0 0 512 512" style="enable-background:new 0 0 512 512;" xml:space="preserve">
<style type="text/css">
	.st0{fill:#495058;}
	.st1{fill:#89DBD4;}
	.st2{opacity:0.15;enable-background:new    ;}
	.st3{fill:#FCE182;}
	.st4{opacity:0.2;enable-background:new    ;}
	.st5{fill:#EA7988;}
	.st6{fill:#B9DCFD;}
</style>
<g>
	<g>
		<path class="st0" d="M161.4,163.3c-3.4,0-6.7-1.3-9.3-3.9L77.3,84.7c-5.2-5.2-5.2-13.1,0-18.3s13.1-5.2,18.3,0l74.8,74.8
			c5.2,5.2,5.2,13.1,0,18.3C167.7,162,164.8,163.3,161.4,163.3z"/>
		<path class="st0" d="M350.6,163.3c3.4,0,6.7-1.3,9.3-3.9l74.8-74.8c5.2-5.2,5.2-13.1,0-18.3c-5.2-5.2-13.1-5.2-18.3,0l-74.8,74.8
			c-5.2,5.2-5.2,13.1,0,18.3C344.3,162,347.2,163.3,350.6,163.3z"/>
		<path class="st0" d="M161.4,348.8c-3.4,0-6.7,1.3-9.3,3.9l-74.8,74.8c-5.2,5.2-5.2,13.1,0,18.3c5.2,5.2,13.1,5.2,18.3,0l74.8-74.8
			c5.2-5.2,5.2-13.1,0-18.3C167.7,350.1,164.8,348.8,161.4,348.8z"/>
		<path class="st0" d="M350.6,348.8c3.4,0,6.7,1.3,9.3,3.9l74.8,74.8c5.2,5.2,5.2,13.1,0,18.3c-5.2,5.2-13.1,5.2-18.3,0L341.7,371
			c-5.2-5.2-5.2-13.1,0-18.3C344.3,350.1,347.2,348.8,350.6,348.8z"/>
	</g>
	<path class="st1" d="M123.9,75.5c0,20.6-16.7,37.5-37.5,37.5S49.1,96.1,49.1,75.5S65.9,38,86.6,38S123.9,54.7,123.9,75.5z"/>
	<path class="st2" d="M103.8,95.3c-20.6,0-37.5-16.7-37.5-37.5c0-6,1.3-11.4,3.6-16.2c-12.7,6-21.1,18.8-21.1,33.8
		c0,20.6,16.7,37.5,37.5,37.5c14.9,0,27.6-8.8,33.8-21.1C115.1,94,109.8,95.3,103.8,95.3z"/>
	<path class="st3" d="M463.1,75.5c0,20.6-16.7,37.5-37.5,37.5c-20.6,0-37.5-16.7-37.5-37.5S405,38,425.7,38
		C446.4,38,463.1,54.7,463.1,75.5z"/>
	<path class="st4" d="M443.3,95.3c-20.6,0-37.5-16.7-37.5-37.5c0-6,1.3-11.4,3.6-16.2c-12.7,6-21.1,18.8-21.1,33.8
		c0,20.6,16.7,37.5,37.5,37.5c14.9,0,27.6-8.8,33.8-21.1C454.3,94,449,95.3,443.3,95.3z"/>
	<path class="st5" d="M123.9,436.5c0,20.6-16.7,37.5-37.5,37.5S49,457.3,49,436.5c0-20.6,16.7-37.5,37.5-37.5
		S123.9,415.8,123.9,436.5z"/>
	<path class="st2" d="M103.8,456.4c-20.6,0-37.5-16.7-37.5-37.5c0-6,1.3-11.4,3.6-16.2c-12.7,6-21.1,18.8-21.1,33.8
		c0,20.6,16.7,37.5,37.5,37.5c14.9,0,27.6-8.8,33.8-21.1C115.1,455.1,109.8,456.4,103.8,456.4z"/>
	<path class="st6" d="M463.1,436.5c0,20.6-16.7,37.5-37.5,37.5c-20.6,0-37.5-16.7-37.5-37.5c0-20.6,16.7-37.5,37.5-37.5
		S463.1,415.8,463.1,436.5z"/>
	<path class="st2" d="M443.3,456.4c-20.6,0-37.5-16.7-37.5-37.5c0-6,1.3-11.4,3.6-16.2c-12.7,6-21.1,18.8-21.1,33.8
		c0,20.6,16.7,37.5,37.5,37.5c14.9,0,27.6-8.8,33.8-21.1C454.3,455.1,449,456.4,443.3,456.4z"/>
	<g>
		<g>
			<path class="st0" d="M152.3,242.5c-4.7,0-8.3,1.3-10.6,3.9c-2.3,2.6-3.6,6-3.6,9.9c0,3.9,1.3,7,3.6,9.6c2.3,2.6,6,3.9,10.6,3.9
				c4.7,0,8.3-1.3,10.6-3.9s3.6-5.7,3.6-9.6c0-3.9-1.3-7.3-3.6-9.9S157,242.5,152.3,242.5L152.3,242.5z"/>
		</g>
		<g>
			<path class="st0" d="M256.3,242.5c-4.7,0-8.3,1.3-10.6,3.9c-2.3,2.6-3.6,6-3.6,9.9c0,3.9,1.3,7,3.6,9.6c2.3,2.6,6,3.9,10.6,3.9
				c4.7,0,8.3-1.3,10.6-3.9c2.3-2.6,3.6-5.7,3.6-9.6c0-3.9-1.3-7.3-3.6-9.9C264.6,243.8,260.9,242.5,256.3,242.5L256.3,242.5z"/>
		</g>
		<g>
			<path class="st0" d="M360.5,242.5c-4.7,0-8.3,1.3-10.6,3.9c-2.3,2.6-3.6,6-3.6,9.9c0,3.9,1.3,7,3.6,9.6s6,3.9,10.6,3.9
				c4.7,0,8.3-1.3,10.6-3.9c2.3-2.6,3.6-5.7,3.6-9.6c0-3.9-1.3-7.3-3.6-9.9C368.5,243.8,365.1,242.5,360.5,242.5L360.5,242.5z"/>
		</g>
	</g>
</g>
<g>
	<path class="st0" d="M256,56.4L56.4,256L256,455.6L455.6,256L256,56.4z M98.7,256.1L256,98.8l157.3,157.3L256,413.5L98.7,256.1z"/>
</g>
</svg>
